<svg width="280" height="280" viewBox="0 0 280 280" fill="none" xmlns="http://www.w3.org/2000/svg">
<path d="M94.5038 56.8247C113.627 1.41866 176.396 17.1107 190.056 57.7037C204.048 98.1277 224.985 172.134 239.001 222.945C243.764 240.211 230.9 257.462 212.989 257.542C212.877 257.543 212.765 257.543 212.653 257.543C186.644 257.543 182.235 248.448 176.672 226.576C174.121 216.55 165.089 209.526 154.743 209.526H125.999C115.642 209.526 106.603 216.56 104.063 226.601C103.088 230.451 102.165 234.14 101.133 238.196C98.5487 248.349 90.3716 256.099 80.1176 258.249C-1.67485 275.398 61.6055 152.141 94.5038 56.8247ZM134.024 112.613C128.572 128.719 125.143 138.833 121.412 152.047C120.022 156.969 123.706 161.861 128.82 161.861H152.55C157.596 161.861 161.279 157.083 160.001 152.201C155.296 134.237 152.296 123.472 148.628 112.635C146.262 105.643 136.391 105.621 134.024 112.613Z" fill="#BF2612"/>
<path d="M68 239C85.1667 174 119.4 62.6 139 57C158.6 51.4 193.833 170 212 239" stroke="white"/>
<ellipse cx="69" cy="241" rx="5" ry="5" transform="rotate(-180 69 241)" fill="white"/>
<path d="M197 185H84" stroke="white"/>
<ellipse cx="83" cy="185" rx="5" ry="5" transform="rotate(-180 83 185)" fill="white"/>
<ellipse cx="119" cy="85" rx="5" ry="5" transform="rotate(-180 119 85)" fill="white"/>
<ellipse cx="141" cy="57" rx="5" ry="5" transform="rotate(-180 141 57)" fill="white"/>
<ellipse cx="163" cy="85" rx="5" ry="5" transform="rotate(-180 163 85)" fill="white"/>
<ellipse cx="100" cy="134" rx="5" ry="5" transform="rotate(-180 100 134)" fill="white"/>
<ellipse cx="182" cy="134" rx="5" ry="5" transform="rotate(-180 182 134)" fill="white"/>
<ellipse cx="197" cy="185" rx="5" ry="5" transform="rotate(-180 197 185)" fill="white"/>
<ellipse cx="142" cy="185" rx="5" ry="5" transform="rotate(-180 142 185)" fill="white"/>
<ellipse cx="213" cy="241" rx="5" ry="5" transform="rotate(-180 213 241)" fill="white"/>
</svg>
