<svg width="280" height="280" viewBox="0 0 280 280" fill="none" xmlns="http://www.w3.org/2000/svg">
<path d="M201.261 199.662C220.476 192.473 239.156 212.735 229.942 231.066C227.283 236.354 222.818 241.314 216.197 245.462C141.369 292.318 5.06182 212.154 56.2017 88.0226C99.1702 -16.3433 247.195 21.2723 234.683 66.463C230.981 79.8348 215.493 86.0299 203.111 79.7688C89.2108 22.1711 79.0807 245.376 201.261 199.662Z" fill="#BF2612"/>
<path d="M213.5 61.9998C193.5 37.4998 106.4 15.9997 81.9999 118C51.4999 245.5 209 240.5 209 220.5" stroke="white"/>
<ellipse cx="213" cy="62" rx="5" ry="5" transform="rotate(-180 213 62)" fill="white"/>
<ellipse cx="180" cy="44" rx="5" ry="5" transform="rotate(-180 180 44)" fill="white"/>
<ellipse cx="135" cy="47" rx="5" ry="5" transform="rotate(-180 135 47)" fill="white"/>
<ellipse cx="89" cy="96" rx="5" ry="5" transform="rotate(-180 89 96)" fill="white"/>
<ellipse cx="78" cy="152" rx="5" ry="5" transform="rotate(-180 78 152)" fill="white"/>
<ellipse cx="97" cy="202" rx="5" ry="5" transform="rotate(-180 97 202)" fill="white"/>
<ellipse cx="135" cy="225" rx="5" ry="5" transform="rotate(-180 135 225)" fill="white"/>
<ellipse cx="180" cy="231" rx="5" ry="5" transform="rotate(-180 180 231)" fill="white"/>
<ellipse cx="209" cy="221" rx="5" ry="5" transform="rotate(-180 209 221)" fill="white"/>
</svg>
