<svg width="280" height="280" viewBox="0 0 280 280" fill="none" xmlns="http://www.w3.org/2000/svg">
<path d="M57.2162 60.8522C57.2162 18.0974 90.3943 16.4204 197.139 25.3538C215.596 26.8985 228.557 45.0407 223.023 62.7166C220.372 71.1854 213.975 77.5357 201.681 77.5357H139.308C129.57 77.5357 121.676 85.4296 121.676 95.1674C121.676 104.905 129.57 112.799 139.308 112.799H188.326C202.123 112.799 213.511 123.727 213.93 137.517C214.347 151.196 208.97 164.366 191.443 164.366H139.308C129.57 164.366 121.676 172.26 121.676 181.998V186.547C121.676 196.285 129.57 204.179 139.308 204.179H200.336C214.284 204.179 225.858 215.338 225.947 229.286C225.948 229.385 225.948 229.484 225.948 229.583C225.948 264.324 133.262 260.42 101.724 256.523C94.7359 255.66 82.4785 252.958 75.5422 246.141C47.4202 218.505 55.9021 151.786 57.2162 60.8522Z" fill="#BF2612"/>
<path d="M204 54.5002H122.5C112.167 53.3335 91.4999 57.6002 91.4999 84.0002C91.4999 96.4006 90.9283 117.082 91.4999 138.5M204 231.5C181.5 231.5 151.6 231.5 126 231.5C100.4 231.5 91.3333 212.5 91.5 203C90.9697 187.798 92.1452 162.68 91.4999 138.5M91.4999 138.5H204" stroke="white"/>
<ellipse cx="202" cy="54" rx="5" ry="5" transform="rotate(-180 202 54)" fill="white"/>
<ellipse cx="151" cy="54" rx="5" ry="5" transform="rotate(-180 151 54)" fill="white"/>
<ellipse cx="117" cy="54" rx="5" ry="5" transform="rotate(-180 117 54)" fill="white"/>
<ellipse cx="96" cy="64" rx="5" ry="5" transform="rotate(-180 96 64)" fill="white"/>
<ellipse cx="91" cy="83" rx="5" ry="5" transform="rotate(-180 91 83)" fill="white"/>
<ellipse cx="91" cy="138" rx="5" ry="5" transform="rotate(-180 91 138)" fill="white"/>
<ellipse cx="91" cy="193" rx="5" ry="5" transform="rotate(-180 91 193)" fill="white"/>
<ellipse cx="96" cy="216" rx="5" ry="5" transform="rotate(-180 96 216)" fill="white"/>
<ellipse cx="117" cy="232" rx="5" ry="5" transform="rotate(-180 117 232)" fill="white"/>
<ellipse cx="202" cy="138" rx="5" ry="5" transform="rotate(-180 202 138)" fill="white"/>
<ellipse cx="151" cy="140" rx="5" ry="5" transform="rotate(-180 151 140)" fill="white"/>
<ellipse cx="151" cy="232" rx="5" ry="5" transform="rotate(-180 151 232)" fill="white"/>
<ellipse cx="202" cy="232" rx="5" ry="5" transform="rotate(-180 202 232)" fill="white"/>
</svg>
