<svg width="280" height="280" viewBox="0 0 280 280" fill="none" xmlns="http://www.w3.org/2000/svg">
<path d="M248.514 196.879C248.035 218.566 235.409 238.271 215.664 247.255C154.932 274.89 32 259.149 32 141.459C32 -24.347 266.338 11.8267 242.092 68.7125C236.49 81.8561 220.814 87.5709 207.759 81.7642C81.1344 25.4405 60.9348 214.2 167.06 206.298C192.809 204.381 203.262 159.82 165.645 166.437C128.073 173.045 132.899 116.107 161.365 116.107C238.02 115.673 249.995 129.662 248.514 196.879Z" fill="#BF2612"/>
<path d="M223 62.4996C185.5 43.9996 104.3 22.6996 79.5 85.4996C48.5 164 78.5 195 85 203.5C91.5 212 141.5 247.5 186.5 229.5C231.5 211.5 229.5 178.5 218.5 158.5C216.333 154.333 211 147 207.5 145.5C204.25 144.107 171.5 136 155 142" stroke="white"/>
<ellipse cx="222" cy="62" rx="5" ry="5" transform="rotate(-180 222 62)" fill="white"/>
<ellipse cx="132" cy="44" rx="5" ry="5" transform="rotate(-180 132 44)" fill="white"/>
<ellipse cx="88" cy="70" rx="5" ry="5" transform="rotate(-180 88 70)" fill="white"/>
<ellipse cx="69" cy="119" rx="5" ry="5" transform="rotate(-180 69 119)" fill="white"/>
<ellipse cx="67" cy="167" rx="5" ry="5" transform="rotate(-180 67 167)" fill="white"/>
<ellipse cx="88" cy="207" rx="5" ry="5" transform="rotate(-180 88 207)" fill="white"/>
<ellipse cx="132" cy="229" rx="5" ry="5" transform="rotate(-180 132 229)" fill="white"/>
<ellipse cx="164" cy="235" rx="5" ry="5" transform="rotate(-180 164 235)" fill="white"/>
<ellipse cx="199" cy="224" rx="5" ry="5" transform="rotate(-180 199 224)" fill="white"/>
<ellipse cx="222" cy="199" rx="5" ry="5" transform="rotate(-180 222 199)" fill="white"/>
<ellipse cx="222" cy="167" rx="5" ry="5" transform="rotate(-180 222 167)" fill="white"/>
<ellipse cx="209" cy="147" rx="5" ry="5" transform="rotate(-180 209 147)" fill="white"/>
<ellipse cx="159" cy="142" rx="5" ry="5" transform="rotate(-180 159 142)" fill="white"/>
<ellipse cx="184" cy="142" rx="5" ry="5" transform="rotate(-180 184 142)" fill="white"/>
</svg>
