<svg width="280" height="280" viewBox="0 0 280 280" fill="none" xmlns="http://www.w3.org/2000/svg">
<path d="M88.1046 21.2902C138.782 17.507 127.934 49.511 127.251 188.099C127.216 195.209 132.971 201.003 140.08 201.003H191.354C208.475 201.003 222.104 215.845 220.075 232.845C218.902 242.674 215.152 249.105 203.506 252.471C200.216 253.422 196.805 253.907 193.386 254.1C41.7776 262.658 59.8571 285.789 61.4784 50.0173C61.5815 34.9975 73.1262 22.4084 88.1046 21.2902Z" fill="#BF2612"/>
<ellipse cx="93" cy="42" rx="5" ry="5" transform="rotate(-180 93 42)" fill="white"/>
<ellipse cx="93" cy="111" rx="5" ry="5" transform="rotate(-180 93 111)" fill="white"/>
<ellipse cx="93" cy="180" rx="5" ry="5" transform="rotate(-180 93 180)" fill="white"/>
<ellipse cx="98" cy="212" rx="5" ry="5" transform="rotate(-180 98 212)" fill="white"/>
<ellipse cx="123" cy="231" rx="5" ry="5" transform="rotate(-180 123 231)" fill="white"/>
<ellipse cx="202" cy="226" rx="5" ry="5" transform="rotate(-180 202 226)" fill="white"/>
<path d="M93.0001 37.5V192C92.6667 205.167 100.3 231.4 133.5 231C166.7 230.6 193 227.5 202 226" stroke="white"/>
</svg>
