<svg width="280" height="280" viewBox="0 0 280 280" fill="none" xmlns="http://www.w3.org/2000/svg">
<path d="M164.385 187.871C159.59 196.852 150.174 202.674 139.998 202.331C136.369 202.209 132.756 201.534 129.41 200.353C105.57 191.939 92.7936 136.511 81.9846 110.079C81.0138 107.705 77.4953 108.32 77.3763 110.882C74.9035 164.094 76.0084 179.693 74.2361 224.227C73.4341 244.377 56.2919 260.433 36.1844 258.898C-4.72775 255.776 10.3971 186.71 18.8804 55.7358C19.9172 39.7284 31.3279 26.1796 47.0041 22.7781C70.2261 17.7395 100.475 22.5882 110.099 47.9884C119.394 72.77 129.787 106.731 137.761 132.681C138.448 134.918 141.606 134.929 142.308 132.697C147.638 115.767 161.149 73.1481 170.982 44.7534C175.15 32.7181 185.73 24.0999 198.346 22.3498C222.194 19.0412 251.683 24.1078 255.132 42.6865C259.054 62.3673 267.984 164.423 271.909 219.58C273.395 240.464 255.644 257.848 234.843 255.467C220.527 253.828 208.238 246.889 207.42 231.267C204.106 171.07 204.866 149.45 203.435 114.006C203.328 111.365 199.649 110.817 198.785 113.314C194.058 126.976 181.937 154.991 164.385 187.871Z" fill="#BF2612"/>
<ellipse cx="43" cy="242" rx="5" ry="5" transform="rotate(-180 43 242)" fill="white"/>
<ellipse cx="49" cy="117" rx="5" ry="5" transform="rotate(-180 49 117)" fill="white"/>
<ellipse cx="46" cy="180" rx="5" ry="5" transform="rotate(-180 46 180)" fill="white"/>
<ellipse cx="54" cy="66" rx="5" ry="5" transform="rotate(-180 54 66)" fill="white"/>
<ellipse cx="71" cy="52" rx="5" ry="5" transform="rotate(-180 71 52)" fill="white"/>
<ellipse cx="89" cy="76" rx="5" ry="5" transform="rotate(-180 89 76)" fill="white"/>
<ellipse cx="111" cy="131" rx="5" ry="5" transform="rotate(-180 111 131)" fill="white"/>
<ellipse cx="127" cy="156" rx="5" ry="5" transform="rotate(-180 127 156)" fill="white"/>
<ellipse cx="153" cy="156" rx="5" ry="5" transform="rotate(-180 153 156)" fill="white"/>
<ellipse cx="163" cy="135" rx="5" ry="5" transform="rotate(-180 163 135)" fill="white"/>
<ellipse cx="186" cy="76" rx="5" ry="5" transform="rotate(-180 186 76)" fill="white"/>
<ellipse cx="201" cy="52" rx="5" ry="5" transform="rotate(-180 201 52)" fill="white"/>
<ellipse cx="226" cy="66" rx="5" ry="5" transform="rotate(-180 226 66)" fill="white"/>
<ellipse cx="237" cy="180" rx="5" ry="5" transform="rotate(-180 237 180)" fill="white"/>
<ellipse cx="231" cy="117" rx="5" ry="5" transform="rotate(-180 231 117)" fill="white"/>
<ellipse cx="243" cy="242" rx="5" ry="5" transform="rotate(-180 243 242)" fill="white"/>
<path d="M42.9934 242L53.4934 62.9997C57.5 46.2219 80.271 34.7555 104.993 112.5C117.867 152.982 143.761 203.768 171.493 112.5C199.502 20.3225 223.465 42.8389 226.493 62.9997L242.993 242" stroke="white"/>
</svg>
