<svg width="280" height="280" viewBox="0 0 280 280" fill="none" xmlns="http://www.w3.org/2000/svg">
<path d="M246.997 88.8996C314.093 253.281 84.0774 320.937 31.7636 190.164C-33.9001 26.0197 194.371 -39.8889 246.997 88.8996ZM89.2083 139.716C89.2083 229.022 189.736 231.554 189.736 139.716C189.736 49.3819 89.2083 50.4704 89.2083 139.716Z" fill="#BF2612"/>
<ellipse cx="140" cy="47" rx="5" ry="5" transform="rotate(-180 140 47)" fill="white"/>
<ellipse cx="193" cy="63" rx="5" ry="5" transform="rotate(-180 193 63)" fill="white"/>
<ellipse cx="218" cy="104" rx="5" ry="5" transform="rotate(-180 218 104)" fill="white"/>
<ellipse cx="223" cy="148" rx="5" ry="5" transform="rotate(-180 223 148)" fill="white"/>
<ellipse cx="218" cy="184" rx="5" ry="5" transform="rotate(-180 218 184)" fill="white"/>
<ellipse cx="193" cy="218" rx="5" ry="5" transform="rotate(-180 193 218)" fill="white"/>
<ellipse cx="140" cy="232" rx="5" ry="5" transform="rotate(-180 140 232)" fill="white"/>
<ellipse cx="89" cy="218" rx="5" ry="5" transform="rotate(-180 89 218)" fill="white"/>
<ellipse cx="62" cy="184" rx="5" ry="5" transform="rotate(-180 62 184)" fill="white"/>
<ellipse cx="56" cy="148" rx="5" ry="5" transform="rotate(-180 56 148)" fill="white"/>
<ellipse cx="62" cy="104" rx="5" ry="5" transform="rotate(-180 62 104)" fill="white"/>
<ellipse cx="87" cy="63" rx="5" ry="5" transform="rotate(-180 87 63)" fill="white"/>
<path d="M222.579 140.16C221.279 57.746 163.481 43.1144 134.744 46.1004C104.768 47.3011 58.7055 59.1544 56.2126 146.824C54.2182 216.96 109.5 232.951 142.229 232.951C175.005 232.95 223.879 222.574 222.579 140.16Z" stroke="white"/>
</svg>
