<svg width="280" height="280" viewBox="0 0 280 280" fill="none" xmlns="http://www.w3.org/2000/svg">
<path d="M112.867 234.089C112.867 246.584 103.518 257.267 91.0862 258.53C66.0338 261.075 46 253.699 46 226.043C46 146.21 47.6845 91.479 48.9674 61.3725C49.6745 44.7795 56.4429 25.5656 72.9256 23.5282C124.441 17.1608 234.255 16.4522 233.991 101.479C233.786 167.541 188.818 181.425 133.311 183.646C121.884 184.104 112.867 193.531 112.867 204.968V234.089ZM112.484 93.2938V107.86C112.484 122.007 125.974 132.189 139.617 128.448C181.007 117.101 173.106 79.2452 137.786 72.2793C124.663 69.6911 112.484 79.918 112.484 93.2938Z" fill="#BF2612"/>
<ellipse cx="86" cy="53" rx="5" ry="5" transform="rotate(-180 86 53)" fill="white"/>
<ellipse cx="149" cy="50" rx="5" ry="5" transform="rotate(-180 149 50)" fill="white"/>
<ellipse cx="177" cy="60" rx="5" ry="5" transform="rotate(-180 177 60)" fill="white"/>
<ellipse cx="196" cy="82" rx="5" ry="5" transform="rotate(-180 196 82)" fill="white"/>
<ellipse cx="196" cy="114" rx="5" ry="5" transform="rotate(-180 196 114)" fill="white"/>
<ellipse cx="180" cy="141" rx="5" ry="5" transform="rotate(-180 180 141)" fill="white"/>
<ellipse cx="149" cy="155" rx="5" ry="5" transform="rotate(-180 149 155)" fill="white"/>
<ellipse cx="83" cy="160" rx="5" ry="5" transform="rotate(-180 83 160)" fill="white"/>
<ellipse cx="81" cy="242" rx="5" ry="5" transform="rotate(-180 81 242)" fill="white"/>
<ellipse cx="84" cy="104" rx="5" ry="5" transform="rotate(-180 84 104)" fill="white"/>
<path d="M80.5 244.5L82.6875 160.5M82.6875 160.5L85.5 52.5001C88.3125 52.5001 194 28.0001 199 99.0001C203 155.8 123.125 163.667 82.6875 160.5Z" stroke="white"/>
</svg>
