<svg width="280" height="280" viewBox="0 0 280 280" fill="none" xmlns="http://www.w3.org/2000/svg">
<path d="M112.224 191.252V238.495C112.224 247.668 105.665 255.508 96.6509 257.205C31.662 269.442 45.8974 220.379 47.2147 70.6064C47.3858 51.1545 60.0261 33.991 78.5806 28.1481C131.508 11.4815 232.357 19.2387 232.357 102.823C232.357 128.75 219.171 149.799 199.44 163.237C195.563 165.877 194.576 171.164 197.391 174.916C212.818 195.477 222.273 206.143 230.319 217.477C238.316 228.742 235.659 244.528 224.083 252.066C218.005 256.024 210.778 258.028 203.257 258.028C173.422 258.028 168.968 241.846 134.75 186.363C133.05 183.606 130.036 181.918 126.797 181.918H121.558C116.403 181.918 112.224 186.097 112.224 191.252ZM111.85 88.0499V118.661C111.85 126.344 118.486 132.392 126.128 131.601C189.463 125.046 174.034 74.3699 124.805 75.0451C117.645 75.1433 111.85 80.8895 111.85 88.0499Z" fill="#BF2612"/>
<ellipse cx="83" cy="242" rx="5" ry="5" transform="rotate(-180 83 242)" fill="white"/>
<ellipse cx="83" cy="159" rx="5" ry="5" transform="rotate(-180 83 159)" fill="white"/>
<ellipse cx="83" cy="76" rx="5" ry="5" transform="rotate(-180 83 76)" fill="white"/>
<ellipse cx="106" cy="50" rx="5" ry="5" transform="rotate(-180 106 50)" fill="white"/>
<ellipse cx="140" cy="45" rx="5" ry="5" transform="rotate(-180 140 45)" fill="white"/>
<ellipse cx="189" cy="71" rx="5" ry="5" transform="rotate(-180 189 71)" fill="white"/>
<ellipse cx="202" cy="103" rx="5" ry="5" transform="rotate(-180 202 103)" fill="white"/>
<ellipse cx="189" cy="133" rx="5" ry="5" transform="rotate(-180 189 133)" fill="white"/>
<ellipse cx="154" cy="159" rx="5" ry="5" transform="rotate(-180 154 159)" fill="white"/>
<ellipse cx="209" cy="239" rx="5" ry="5" transform="rotate(-180 209 239)" fill="white"/>
<ellipse cx="184" cy="202" rx="5" ry="5" transform="rotate(-180 184 202)" fill="white"/>
<path d="M82.5 239V159.25M154.5 158L174 145.5C237 102 180 44.5 133 44.5C95.4 44.5 83.6667 67.8333 82.5 79.5V159.25M154.5 158L209 239M154.5 158L82.5 159.25" stroke="white"/>
</svg>
