<svg width="280" height="280" viewBox="0 0 280 280" fill="none" xmlns="http://www.w3.org/2000/svg">
<path d="M52.115 91.0275C52.115 -10.1277 237.139 13.8676 221.764 65.7605C217.882 78.8647 203.377 85.8264 190.506 81.2279C162.274 71.1407 119.56 71.0393 119.56 91.0277C119.56 117.962 231.348 106.789 231.348 188.655C231.348 305.707 6.42838 253.139 54.8226 199.414C62.2955 191.118 74.6305 189.067 84.4026 194.468C119.705 213.98 163.903 208.928 163.903 187.911C163.903 156.924 52.115 170.366 52.115 91.0275Z" fill="#BF2612"/>
<path d="M205.5 64.9996C184.333 51.8329 134.1 31.9996 102.5 57.9996C63 90.4996 99 120.5 117 126.5C135 132.5 219.5 155 195.5 204.5C171.5 254 107.5 230.5 66 212.5" stroke="white"/>
<ellipse cx="206" cy="65" rx="5" ry="5" transform="rotate(-180 206 65)" fill="white"/>
<ellipse cx="162" cy="50" rx="5" ry="5" transform="rotate(-180 162 50)" fill="white"/>
<ellipse cx="119" cy="50" rx="5" ry="5" transform="rotate(-180 119 50)" fill="white"/>
<ellipse cx="85" cy="82" rx="5" ry="5" transform="rotate(-180 85 82)" fill="white"/>
<ellipse cx="95" cy="112" rx="5" ry="5" transform="rotate(-180 95 112)" fill="white"/>
<ellipse cx="119" cy="128" rx="5" ry="5" transform="rotate(-180 119 128)" fill="white"/>
<ellipse cx="170" cy="149" rx="5" ry="5" transform="rotate(-180 170 149)" fill="white"/>
<ellipse cx="196" cy="172" rx="5" ry="5" transform="rotate(-180 196 172)" fill="white"/>
<ellipse cx="191" cy="212" rx="5" ry="5" transform="rotate(-180 191 212)" fill="white"/>
<ellipse cx="170" cy="229" rx="5" ry="5" transform="rotate(-180 170 229)" fill="white"/>
<ellipse cx="105" cy="227" rx="5" ry="5" transform="rotate(-180 105 227)" fill="white"/>
<ellipse cx="66" cy="212" rx="5" ry="5" transform="rotate(-180 66 212)" fill="white"/>
</svg>
