<svg width="280" height="280" viewBox="0 0 280 280" fill="none" xmlns="http://www.w3.org/2000/svg">
<path d="M44.3261 66.682C36.7201 55.9662 38.2126 41.0639 48.1654 32.4837C48.2304 32.4277 48.2954 32.3719 48.3608 32.3163C87.8415 -1.28165 114.179 47.2249 136.29 82.9328C138.973 87.2654 145.226 87.3914 148.081 83.1704L181.291 34.078C185.114 28.4258 191.012 24.4675 197.717 23.1967C227.043 17.6388 256.171 42.4454 237.309 71.0589C229.481 82.9347 221.3 92.4625 186.288 135.262C184.296 137.697 184.161 141.166 185.964 143.743L236.363 215.788C244.381 227.25 241.905 243.137 230.578 251.345C216.547 261.513 196.571 260.903 185.587 253.328C175.865 246.624 170.58 236.894 144.057 194.769C141.34 190.455 135.071 190.373 132.254 194.622L97.3739 247.219C92.4189 254.691 83.9353 259.15 74.9781 258.761C40.0968 257.246 20.5768 233.227 55.0412 189.774L91.9146 142.363C93.8173 139.917 93.8919 136.512 92.0979 133.985L44.3261 66.682Z" fill="#BF2612"/>
<path d="M62 38.5L136.746 138M216 243.5L136.746 138M136.746 138L216 38.5M136.746 138L62 243.5" stroke="white"/>
<ellipse cx="64" cy="40" rx="5" ry="5" transform="rotate(-180 64 40)" fill="white"/>
<ellipse cx="100" cy="89" rx="5" ry="5" transform="rotate(-180 100 89)" fill="white"/>
<ellipse cx="136" cy="138" rx="5" ry="5" transform="rotate(-180 136 138)" fill="white"/>
<ellipse cx="176" cy="89" rx="5" ry="5" transform="rotate(-180 176 89)" fill="white"/>
<ellipse cx="216" cy="40" rx="5" ry="5" transform="rotate(-180 216 40)" fill="white"/>
<ellipse cx="100" cy="189" rx="5" ry="5" transform="rotate(-180 100 189)" fill="white"/>
<ellipse cx="64" cy="239" rx="5" ry="5" transform="rotate(-180 64 239)" fill="white"/>
<ellipse cx="176" cy="189" rx="5" ry="5" transform="rotate(-180 176 189)" fill="white"/>
<ellipse cx="211" cy="239" rx="5" ry="5" transform="rotate(-180 211 239)" fill="white"/>
</svg>
