<svg width="280" height="280" viewBox="0 0 280 280" fill="none" xmlns="http://www.w3.org/2000/svg">
<path d="M157.266 257.674C100.915 266.825 108.634 227.227 109.537 181.421C109.629 176.791 108.28 172.247 105.703 168.399C85.5332 138.287 57.8483 94.7746 40.6586 59.2317C33.7062 44.856 40.9092 27.3545 56.2111 22.7881C74.0513 17.464 95.5525 23.2642 109.23 50.5989L135.099 102.651C137.485 107.451 144.383 107.301 146.554 102.4C153.298 87.1651 164.808 61.0396 172.408 43.0928C177.05 32.1309 186.843 24.013 198.59 22.0861C225.396 17.6893 248.937 30.9904 240.133 60.9638C234.659 79.5416 194.013 145.523 178.671 170.248C176.437 173.848 175.257 177.997 175.257 182.233V236.462C175.257 246.977 167.646 255.988 157.266 257.674Z" fill="#BF2612"/>
<path d="M60 31L112 120C118.292 131.011 129.65 144.468 142 146.115M211.5 31L171.5 120C162.426 141.173 151.894 147.434 142 146.115M142 146.115V250" stroke="white"/>
<ellipse cx="60" cy="31" rx="5" ry="5" transform="rotate(-180 60 31)" fill="white"/>
<ellipse cx="117" cy="127" rx="5" ry="5" transform="rotate(-180 117 127)" fill="white"/>
<ellipse cx="141" cy="146" rx="5" ry="5" transform="rotate(-180 141 146)" fill="white"/>
<ellipse cx="167" cy="127" rx="5" ry="5" transform="rotate(-180 167 127)" fill="white"/>
<ellipse cx="210" cy="31" rx="5" ry="5" transform="rotate(-180 210 31)" fill="white"/>
<ellipse cx="89" cy="82" rx="5" ry="5" transform="rotate(-180 89 82)" fill="white"/>
<ellipse cx="189" cy="82" rx="5" ry="5" transform="rotate(-180 189 82)" fill="white"/>
<ellipse cx="141" cy="184" rx="5" ry="5" transform="rotate(-180 141 184)" fill="white"/>
<ellipse cx="141" cy="245" rx="5" ry="5" transform="rotate(-180 141 245)" fill="white"/>
</svg>
